<svg xmlns="http://www.w3.org/2000/svg" viewBox="0 0 220 260" width="220" height="260">
  <defs>
    <linearGradient id="sesNavy" x1="1" y1="0" x2="0" y2="1">
      <stop offset="0" stop-color="#2e4fc0"/>
      <stop offset="0.55" stop-color="#16256e"/>
      <stop offset="1" stop-color="#0a1140"/>
    </linearGradient>
    <clipPath id="sesShield">
      <path d="M74 14 L134 14 L206 96 L206 192 L152 248 L92 248 L14 164 L14 72 Z"/>
    </clipPath>
  </defs>
  <!-- Shield silhouette -->
  <path d="M74 14 L134 14 L206 96 L206 192 L152 248 L92 248 L14 164 L14 72 Z" fill="url(#sesNavy)"/>
  <g clip-path="url(#sesShield)" fill="none" stroke="#fff">
    <!-- Split notches where the two halves separate -->
    <path d="M2 118 H58" stroke-width="14"/>
    <path d="M162 150 H218" stroke-width="14"/>
    <!-- Rounded-square ring, broken into two halves at the notches -->
    <path d="M58 111 V91 Q58 55 94 55 H126 Q162 55 162 91 V143" stroke-width="13"/>
    <path d="M162 157 V169 Q162 205 126 205 H94 Q58 205 58 169 V125" stroke-width="13"/>
    <!-- Circuit-S core: two nodes joined by a trace -->
    <line x1="126" y1="92" x2="94" y2="168" stroke-width="26" stroke-linecap="round"/>
    <circle cx="126" cy="92" r="24" fill="#fff" stroke="none"/>
    <circle cx="94" cy="168" r="24" fill="#fff" stroke="none"/>
  </g>
</svg>
